<svg xmlns="http://www.w3.org/2000/svg" viewBox="0 0 60 40">
  <rect width="60" height="40" fill="#b22234"/>
  <g fill="#fff">
    <rect y="3.077" width="60" height="3.077"/><rect y="9.231" width="60" height="3.077"/><rect y="15.385" width="60" height="3.077"/><rect y="21.539" width="60" height="3.077"/><rect y="27.693" width="60" height="3.077"/><rect y="33.847" width="60" height="3.077"/>
  </g>
  <rect width="25.2" height="21.54" fill="#3c3b6e"/>
  <g fill="#fff">
    <circle cx="3" cy="3" r=".75"/><circle cx="7" cy="3" r=".75"/><circle cx="11" cy="3" r=".75"/><circle cx="15" cy="3" r=".75"/><circle cx="19" cy="3" r=".75"/><circle cx="23" cy="3" r=".75"/>
    <circle cx="5" cy="6.6" r=".75"/><circle cx="9" cy="6.6" r=".75"/><circle cx="13" cy="6.6" r=".75"/><circle cx="17" cy="6.6" r=".75"/><circle cx="21" cy="6.6" r=".75"/>
    <circle cx="3" cy="10.2" r=".75"/><circle cx="7" cy="10.2" r=".75"/><circle cx="11" cy="10.2" r=".75"/><circle cx="15" cy="10.2" r=".75"/><circle cx="19" cy="10.2" r=".75"/><circle cx="23" cy="10.2" r=".75"/>
    <circle cx="5" cy="13.8" r=".75"/><circle cx="9" cy="13.8" r=".75"/><circle cx="13" cy="13.8" r=".75"/><circle cx="17" cy="13.8" r=".75"/><circle cx="21" cy="13.8" r=".75"/>
    <circle cx="3" cy="17.4" r=".75"/><circle cx="7" cy="17.4" r=".75"/><circle cx="11" cy="17.4" r=".75"/><circle cx="15" cy="17.4" r=".75"/><circle cx="19" cy="17.4" r=".75"/><circle cx="23" cy="17.4" r=".75"/>
  </g>
</svg>
